<svg xmlns="http://www.w3.org/2000/svg" width="48" height="48" viewBox="-5 0 29 24">
  <!-- <circle cx="12" cy="12" r="12" fill="#232323"/> -->
  <circle cx="12" cy="12" r="10" fill="#ffffff"/>
  <circle cx="12" cy="12" r="9" fill="#5b21b6"/>
  <path d="M5 11.1l2-2 5.5 5.5 3.5-3.5 3 3V5H5v6.1zM4 3h16a1 1 0 0 1 1 1v16a1 1 0 0 1-1 1H4a1 1 0 0 1-1-1V4a1 1 0 0 1 1-1zm11.5 7a1.5 1.5 0 1 1 0-3 1.5 1.5 0 0 1 0 3z" transform="scale(0.6), translate(8,8)"  fill="#ffffff" />
  <text x="42%" y="58%" dominant-baseline="middle" text-anchor="middle" font-size="4.2" font-weight="bold" fill="#5b21b6">S+E</text>
</svg>
